<svg width="48" height="48" viewBox="0 0 48 48" fill="none" xmlns="http://www.w3.org/2000/svg">
<circle cx="24" cy="24" r="24" fill="black"/>
<path opacity="0.5" d="M30.5738 16.7442H25.0957V22.8643L26.5123 21.4476C26.719 21.2481 26.9957 21.1376 27.283 21.1401C27.5703 21.1426 27.845 21.2579 28.0482 21.461C28.2513 21.6641 28.3665 21.9389 28.369 22.2262C28.3715 22.5134 28.2611 22.7902 28.0615 22.9968L24.7747 26.2837C24.5693 26.489 24.2906 26.6044 24.0001 26.6044C23.7096 26.6044 23.431 26.489 23.2255 26.2837L19.9387 22.9968C19.7391 22.7902 19.6287 22.5134 19.6312 22.2262C19.6337 21.9389 19.7489 21.6641 19.952 21.461C20.1552 21.2579 20.43 21.1426 20.7172 21.1401C21.0045 21.1376 21.2813 21.2481 21.4879 21.4476L22.9045 22.8643V16.7442H17.4265C16.555 16.7451 15.7195 17.0916 15.1033 17.7079C14.4871 18.3241 14.1405 19.1596 14.1396 20.031V27.7003C14.1405 28.5717 14.4871 29.4072 15.1033 30.0234C15.7195 30.6397 16.555 30.9862 17.4265 30.9871H30.5738C31.4452 30.9862 32.2807 30.6397 32.8969 30.0234C33.5131 29.4072 33.8597 28.5717 33.8606 27.7003V20.031C33.8597 19.1596 33.5131 18.3241 32.8969 17.7079C32.2807 17.0916 31.4452 16.7451 30.5738 16.7442Z" fill="white"/>
</svg>
