<svg width="18" height="13" viewBox="0 0 18 13" fill="none" xmlns="http://www.w3.org/2000/svg">
<path opacity="0.5" d="M15 0H10V5.586L11.293 4.293C11.4816 4.11084 11.7342 4.01005 11.9964 4.01233C12.2586 4.0146 12.5094 4.11977 12.6948 4.30518C12.8802 4.49059 12.9854 4.7414 12.9877 5.0036C12.99 5.2658 12.8892 5.5184 12.707 5.707L9.707 8.707C9.51947 8.89447 9.26516 8.99979 9 8.99979C8.73484 8.99979 8.48053 8.89447 8.293 8.707L5.293 5.707C5.11084 5.5184 5.01005 5.2658 5.01233 5.0036C5.0146 4.7414 5.11977 4.49059 5.30518 4.30518C5.49059 4.11977 5.7414 4.0146 6.0036 4.01233C6.2658 4.01005 6.5184 4.11084 6.707 4.293L8 5.586V0H3C2.20459 0.000794215 1.44199 0.31712 0.879557 0.879557C0.31712 1.44199 0.000794215 2.20459 0 3V10C0.000794215 10.7954 0.31712 11.558 0.879557 12.1204C1.44199 12.6829 2.20459 12.9992 3 13H15C15.7954 12.9992 16.558 12.6829 17.1204 12.1204C17.6829 11.558 17.9992 10.7954 18 10V3C17.9992 2.20459 17.6829 1.44199 17.1204 0.879557C16.558 0.31712 15.7954 0.000794215 15 0Z" fill="white"/>
</svg>
