<svg width="32" height="32" viewBox="0 0 32 32" fill="none" xmlns="http://www.w3.org/2000/svg">
<circle cx="16" cy="16" r="16" fill="black"/>
<path opacity="0.25" d="M22.6667 8.66666H14.6667C14.49 8.66666 14.3205 8.7368 14.1955 8.86168C14.0705 8.98656 14.0002 9.15596 14 9.33266V12H19.3333C19.51 12 19.6795 12.0701 19.8045 12.195C19.9295 12.3199 19.9998 12.4893 20 12.666V18H22.6667C22.8434 18 23.0128 17.9298 23.1378 17.805C23.2628 17.6801 23.3332 17.5107 23.3333 17.334V9.33332C23.3333 9.15663 23.2632 8.98716 23.1383 8.86215C23.0134 8.73715 22.844 8.66683 22.6673 8.66666H22.6667Z" fill="#FFFDFD"/>
<path d="M10.6667 15.3333H16C16.1768 15.3333 16.3464 15.4036 16.4714 15.5286C16.5964 15.6536 16.6667 15.8232 16.6667 16V21.3333C16.6667 21.5102 16.5964 21.6797 16.4714 21.8047C16.3464 21.9298 16.1768 22 16 22H10.6667C10.4899 22 10.3203 21.9298 10.1953 21.8047C10.0702 21.6797 10 21.5102 10 21.3333V16C10 15.8232 10.0702 15.6536 10.1953 15.5286C10.3203 15.4036 10.4899 15.3333 10.6667 15.3333V15.3333Z" fill="#FFFDFD"/>
<path opacity="0.5" d="M19.3333 12H12.6667C12.49 12 12.3205 12.0701 12.1955 12.195C12.0705 12.3199 12.0002 12.4893 12 12.666V15.3333H16C16.1767 15.3333 16.3462 15.4035 16.4712 15.5284C16.5962 15.6532 16.6665 15.8226 16.6667 15.9993V20H19.3333C19.51 20 19.6795 19.9299 19.8045 19.805C19.9295 19.6801 19.9998 19.5107 20 19.334V12.6667C20 12.49 19.9299 12.3205 19.805 12.1955C19.6801 12.0705 19.5107 12.0002 19.334 12H19.3333Z" fill="#FFFDFD"/>
</svg>
