<svg width="48" height="48" viewBox="0 0 48 48" fill="none" xmlns="http://www.w3.org/2000/svg">
<circle cx="24" cy="24" r="24" fill="black"/>
<path opacity="0.25" d="M34 13H22C21.735 13 21.4808 13.1052 21.2932 13.2925C21.1057 13.4799 21.0003 13.734 21 13.999V18H29C29.265 18 29.5192 18.1052 29.7068 18.2925C29.8943 18.4799 29.9997 18.734 30 18.999V27H34C34.265 27 34.5192 26.8948 34.7068 26.7075C34.8943 26.5201 34.9997 26.266 35 26.001V14C35 13.735 34.8948 13.4808 34.7075 13.2932C34.5201 13.1057 34.266 13.0003 34.001 13H34Z" fill="#FFFDFD"/>
<path d="M16 23H24C24.2652 23 24.5196 23.1054 24.7071 23.2929C24.8946 23.4804 25 23.7348 25 24V32C25 32.2652 24.8946 32.5196 24.7071 32.7071C24.5196 32.8946 24.2652 33 24 33H16C15.7348 33 15.4804 32.8946 15.2929 32.7071C15.1054 32.5196 15 32.2652 15 32V24C15 23.7348 15.1054 23.4804 15.2929 23.2929C15.4804 23.1054 15.7348 23 16 23V23Z" fill="#FFFDFD"/>
<path opacity="0.5" d="M29 18H19C18.735 18 18.4808 18.1052 18.2932 18.2925C18.1057 18.4799 18.0003 18.734 18 18.999V23H24C24.265 23 24.5192 23.1052 24.7068 23.2925C24.8943 23.4799 24.9997 23.734 25 23.999V30H29C29.265 30 29.5192 29.8948 29.7068 29.7075C29.8943 29.5201 29.9997 29.266 30 29.001V19C30 18.735 29.8948 18.4808 29.7075 18.2932C29.5201 18.1057 29.266 18.0003 29.001 18H29Z" fill="#FFFDFD"/>
</svg>
