<svg width="13" height="13" viewBox="0 0 129 129" fill="none" xmlns="http://www.w3.org/2000/svg">
<circle cx="64.5" cy="64.5" r="64.5" fill="black"/>
<path opacity="0.25" d="M91.375 34.9375H59.125C58.4127 34.9375 57.7295 35.2203 57.2256 35.7237C56.7217 36.2271 56.4382 36.91 56.4375 37.6223V48.375H77.9375C78.6498 48.375 79.333 48.6578 79.8369 49.1612C80.3408 49.6646 80.6243 50.3475 80.625 51.0598V72.5625H91.375C92.0873 72.5625 92.7705 72.2797 93.2744 71.7763C93.7783 71.2729 94.0618 70.59 94.0625 69.8777V37.625C94.0625 36.9127 93.7797 36.2295 93.2763 35.7256C92.7729 35.2217 92.09 34.9382 91.3777 34.9375H91.375Z" fill="#FFFDFD"/>
<path d="M43 61.8125H64.5C65.2128 61.8125 65.8963 62.0956 66.4003 62.5997C66.9044 63.1037 67.1875 63.7872 67.1875 64.5V86C67.1875 86.7128 66.9044 87.3963 66.4003 87.9004C65.8963 88.4044 65.2128 88.6875 64.5 88.6875H43C42.2872 88.6875 41.6037 88.4044 41.0997 87.9004C40.5956 87.3963 40.3125 86.7128 40.3125 86V64.5C40.3125 63.7872 40.5956 63.1037 41.0997 62.5997C41.6037 62.0956 42.2872 61.8125 43 61.8125V61.8125Z" fill="#FFFDFD"/>
<path opacity="0.5" d="M77.9375 48.375H51.0625C50.3502 48.375 49.667 48.6578 49.1631 49.1612C48.6592 49.6646 48.3757 50.3475 48.375 51.0598V61.8125H64.5C65.2123 61.8125 65.8955 62.0953 66.3994 62.5987C66.9033 63.1021 67.1868 63.785 67.1875 64.4973V80.625H77.9375C78.6498 80.625 79.333 80.3422 79.8369 79.8388C80.3408 79.3354 80.6243 78.6525 80.625 77.9402V51.0625C80.625 50.3502 80.3422 49.667 79.8388 49.1631C79.3354 48.6592 78.6525 48.3757 77.9402 48.375H77.9375Z" fill="#FFFDFD"/>
</svg>
